<svg width="65" height="68" viewBox="0 0 65 68" fill="none" xmlns="http://www.w3.org/2000/svg">
<g opacity="0.7">
<path d="M16.2339 21.25H32.4678V25.5H16.2339V21.25ZM16.2339 12.75H40.5848V17H16.2339V12.75ZM16.2339 4.25H40.5848V8.5H16.2339V4.25Z" fill="#1129A6"/>
<path d="M8.36719 4V52.5186L17.1992 36.0791C17.511 35.4897 17.9454 34.9795 18.4717 34.5879C18.9984 34.196 19.6038 33.9324 20.2422 33.8174C20.8806 33.7024 21.5354 33.7394 22.1582 33.9248C22.7807 34.1102 23.3546 34.4392 23.8379 34.8867L38.707 48.4785L52.8926 26.3066L53.0332 26.0869L53.2471 26.2363L56.6172 28.6045L56.8135 28.7412L56.6846 28.9434L42.541 51.0498C42.2317 51.6348 41.8016 52.1419 41.2803 52.5322C40.7532 52.9268 40.147 53.1925 39.5068 53.3086C38.8666 53.4247 38.2095 53.3877 37.585 53.2012C36.9613 53.0148 36.3866 52.6842 35.9033 52.2344L21.0537 38.6602L9.97852 59.25H61.127V64H8.11719C6.97111 63.9988 5.8741 63.5215 5.06738 62.6768C4.26108 61.8324 3.80973 60.6894 3.80859 59.5V4H8.36719Z" fill="#1129A6" stroke="#1129A6" stroke-width="0.5"/>
</g>
</svg>
