<svg width="73" height="76" viewBox="0 0 73 76" fill="none" xmlns="http://www.w3.org/2000/svg">
<g opacity="0.7">
<path d="M31.7516 52.122C30.1791 51.9394 28.6325 51.5647 27.1431 51.0058C27.1885 49.8848 27.2157 48.7163 27.2157 47.5003V45.8995C28.6218 46.6025 30.1504 47.0918 31.7516 47.334V35.6253C31.7516 33.7356 32.4685 31.9234 33.7445 30.5872C35.0204 29.251 36.751 28.5003 38.5556 28.5003H49.7367C49.375 25.8683 48.4156 23.3655 46.9391 21.202C45.4626 19.0386 43.5121 17.2776 41.2513 16.0668C38.9904 14.8561 36.4852 14.2309 33.9459 14.2438C31.4066 14.2566 28.9073 14.9072 26.6577 16.1408C26.299 14.5872 25.708 13.1028 24.9069 11.7423C27.8474 10.2053 31.0988 9.43459 34.3848 9.49565C37.6707 9.5567 40.894 10.4477 43.7806 12.093C46.6672 13.7382 49.1318 16.089 50.9648 18.9456C52.7978 21.8021 53.945 25.0799 54.3089 28.5003H61.2353C63.0399 28.5003 64.7705 29.251 66.0465 30.5872C67.3224 31.9234 68.0393 33.7356 68.0393 35.6253V59.3753C68.0393 61.265 67.3224 63.0772 66.0465 64.4134C64.7705 65.7496 63.0399 66.5003 61.2353 66.5003H38.5556C36.751 66.5003 35.0204 65.7496 33.7445 64.4134C32.4685 63.0772 31.7516 61.265 31.7516 59.3753V52.122ZM54.3089 33.2503C53.7936 38.0696 51.7292 42.5624 48.4547 45.9915C45.1801 49.4206 40.8898 51.5823 36.2876 52.122V59.3753C36.2876 60.0052 36.5265 60.6093 36.9519 61.0547C37.3772 61.5001 37.9541 61.7503 38.5556 61.7503H61.2353C61.8368 61.7503 62.4137 61.5001 62.839 61.0547C63.2644 60.6093 63.5033 60.0052 63.5033 59.3753V35.6253C63.5033 34.9954 63.2644 34.3913 62.839 33.9459C62.4137 33.5005 61.8368 33.2503 61.2353 33.2503H54.3089ZM49.7367 33.2503H38.5556C37.9541 33.2503 37.3772 33.5005 36.9519 33.9459C36.5265 34.3913 36.2876 34.9954 36.2876 35.6253V47.334C39.6804 46.8205 42.8235 45.1714 45.2475 42.633C47.6715 40.0946 49.2463 36.8032 49.7367 33.2503ZM21.7498 35.915C21.2736 34.0815 20.5025 32.2433 19.178 30.8325C21.3189 28.7093 22.6797 25.3273 22.6797 21.3753C22.6797 18.0645 22.0401 15.7893 20.8835 13.97C20.3702 13.1876 19.7771 12.4661 19.1145 11.8183C18.8605 11.5615 18.6034 11.3082 18.3433 11.0583C18.0666 10.7875 17.8126 10.5405 17.4815 10.1938C16.8011 9.48129 16.724 8.91129 16.724 8.61204C16.7248 8.44571 16.7508 8.28056 16.8011 8.12279C17.0085 7.65314 17.0637 7.12541 16.9585 6.61987C16.8532 6.11432 16.5931 5.65861 16.2178 5.32205C15.8425 4.98548 15.3725 4.78648 14.8792 4.75529C14.386 4.72411 13.8966 4.86246 13.4853 5.14929L13.4763 5.15404L13.4627 5.16354L13.4218 5.19204L13.2857 5.28704C12.6054 5.79525 11.9498 6.33902 11.3217 6.91629C10.1877 7.96604 8.70897 9.51929 7.66116 11.3718C6.74649 12.9076 6.01239 14.5535 5.47483 16.2738C4.93052 17.979 4.53589 19.8268 4.53589 21.3753C4.53589 25.3273 5.89668 28.7045 8.03765 30.8373C6.71315 32.2433 5.94204 34.0815 5.46576 35.9198C4.53589 39.4918 4.53589 43.9093 4.53589 47.3245V47.5003C4.53589 57.2758 6.28223 63.0803 8.25991 66.5336C9.25328 68.2626 10.2875 69.3788 11.1538 70.0818C11.6155 70.4589 12.1179 70.7777 12.6507 71.0318C12.9588 71.1496 13.2808 71.2231 13.6078 71.2503C13.9888 71.2503 14.5649 71.0318 14.5649 71.0318C15.0977 70.7777 15.6001 70.4589 16.0618 70.0818C16.9236 69.3788 17.9669 68.2626 18.9557 66.5336C20.9334 63.085 22.6797 57.2758 22.6797 47.5003V47.3293C22.6797 43.9093 22.6797 39.4965 21.7498 35.915ZM11.2809 34.1575C11.7934 33.616 12.4783 33.2503 13.6078 33.2503C14.7418 33.2503 15.4222 33.6208 15.9347 34.1528C16.5063 34.756 17.0007 35.7345 17.3726 37.1643C18.1256 40.0665 18.1438 43.876 18.1438 47.5003C18.1438 56.7248 16.4881 61.6078 15.0638 64.092C14.5195 65.042 14.007 65.6548 13.6078 66.0395C13.0375 65.4653 12.5473 64.8096 12.1518 64.092C10.7275 61.6031 9.07185 56.7248 9.07185 47.5003C9.07185 43.876 9.08999 40.0665 9.84296 37.1643C10.2149 35.7393 10.7093 34.756 11.2809 34.1528V34.1575ZM13.6078 28.5003C11.8615 28.5003 9.07185 26.4673 9.07185 21.3753C9.07185 20.5535 9.30771 19.252 9.77945 17.7795C10.2093 16.3894 10.802 15.0604 11.5439 13.8228C11.9386 13.1245 12.4511 12.4453 13.0045 11.823C13.3175 12.4025 13.7303 12.9868 14.2746 13.5568C14.6057 13.9035 15.0366 14.3215 15.404 14.6825L15.9665 15.2335C16.4428 15.718 16.8102 16.1408 17.105 16.611C17.6493 17.4613 18.1438 18.7485 18.1438 21.3753C18.1438 26.4673 15.3541 28.5003 13.6078 28.5003Z" fill="#1129A6"/>
</g>
</svg>
