<svg width="85" height="88" viewBox="0 0 85 88" fill="none" xmlns="http://www.w3.org/2000/svg">
<g opacity="0.7">
<path d="M73.53 24.75C73.53 21.1033 72.1466 17.6059 69.6842 15.0273C67.2218 12.4487 63.882 11 60.3996 11H23.6345C20.1521 11 16.8123 12.4487 14.3499 15.0273C11.8875 17.6059 10.5041 21.1033 10.5041 24.75V31.669C14.3882 28.9442 18.9594 27.4928 23.6345 27.5C29.2648 27.5 34.4329 29.5625 38.4929 33H68.2779V63.25C68.2779 65.438 67.4478 67.5365 65.9704 69.0836C64.4929 70.6308 62.4891 71.5 60.3996 71.5H53.1569L55.4678 73.92C56.3239 74.8165 56.9437 75.8725 57.3271 77H60.3996C63.882 77 67.2218 75.5514 69.6842 72.9727C72.1466 70.3941 73.53 66.8967 73.53 63.25V24.75ZM23.6345 27.5H15.7563V24.75C15.7563 22.562 16.5863 20.4635 18.0638 18.9164C19.5412 17.3692 21.5451 16.5 23.6345 16.5H60.3996C62.4891 16.5 64.4929 17.3692 65.9704 18.9164C67.4478 20.4635 68.2779 22.562 68.2779 24.75V27.5H23.6345ZM34.643 67.6665C30.921 70.581 26.283 71.9111 21.6623 71.3889C17.0416 70.8668 12.7813 68.5312 9.73875 64.8523C6.6962 61.1733 5.09727 56.4241 5.26376 51.5604C5.43025 46.6967 7.3498 42.0796 10.6361 38.6382C13.9224 35.1968 18.3315 33.1867 22.976 33.0124C27.6205 32.838 32.1557 34.5124 35.6689 37.6985C39.182 40.8846 41.4124 45.346 41.911 50.1847C42.4096 55.0235 41.1395 59.8804 38.3563 63.778L51.7493 77.803C52.2424 78.3187 52.5197 79.0183 52.5202 79.7481C52.5207 80.4778 52.2444 81.1779 51.7519 81.6943C51.2595 82.2106 50.5914 82.501 49.8945 82.5015C49.1977 82.5021 48.5291 82.2127 48.036 81.697L34.643 67.672V67.6665ZM36.7649 52.25C36.7649 48.6033 35.3815 45.1059 32.9191 42.5273C30.4567 39.9487 27.1169 38.5 23.6345 38.5C20.1521 38.5 16.8123 39.9487 14.3499 42.5273C11.8875 45.1059 10.5041 48.6033 10.5041 52.25C10.5041 55.8967 11.8875 59.3941 14.3499 61.9727C16.8123 64.5514 20.1521 66 23.6345 66C27.1169 66 30.4567 64.5514 32.9191 61.9727C35.3815 59.3941 36.7649 55.8967 36.7649 52.25Z" fill="#1129A6"/>
</g>
</svg>
