<svg width="79" height="82" viewBox="0 0 79 82" fill="none" xmlns="http://www.w3.org/2000/svg">
<g opacity="0.7">
<path d="M16.6716 6.16504L13.2262 9.76791L18.3527 15.1338L21.7932 11.5309L16.6691 6.16504H16.6716ZM61.6358 6.16504L56.5092 11.5309L59.9522 15.1338L65.0763 9.77048L61.6333 6.16504H61.6358ZM39.1525 7.76404C38.3449 7.77429 37.5276 7.82298 36.7054 7.92804C36.681 7.92804 36.6565 7.92291 36.632 7.92804C26.7069 9.1196 18.8079 17.5169 17.4351 27.8643C16.3388 36.1924 19.6178 43.7441 25.082 48.6077C27.3172 50.6053 28.829 53.3465 29.3643 56.3721V71.7471H34.9436C35.7951 73.2769 37.349 74.3096 39.1525 74.3096C40.9559 74.3096 42.5098 73.2769 43.3613 71.7471H48.9406V61.4971H49.1706V58.4529C49.1706 54.6962 51.0352 50.9089 54.0646 47.9645C58.1169 43.7159 61.1757 37.6812 61.1757 30.7497C61.1757 18.0909 51.2261 7.64616 39.1525 7.76404ZM39.1525 12.889C48.6102 12.7507 56.2817 20.8584 56.2817 30.7497C56.2817 36.1155 53.908 40.8408 50.6217 44.2797L50.7 44.3617C47.4341 47.5154 45.3223 51.7642 44.7292 56.3747H34.0259C33.4876 51.9825 31.689 47.7314 28.2901 44.682C23.9662 40.8382 21.3895 35.047 22.2508 28.5075C23.3202 20.4356 29.5748 13.9448 37.2389 13.0556C37.8716 12.9632 38.5089 12.9085 39.1476 12.8916L39.1525 12.889ZM4.89404 30.7497V35.8747H12.2351V30.7497H4.89404ZM66.0698 30.7497V35.8747H73.4109V30.7497H66.0698ZM18.3527 51.4905L13.2286 56.8539L16.6716 60.4593L21.7908 55.0934L18.3527 51.4905ZM59.9522 51.4905L56.5117 55.0934L61.6333 60.4593L65.0763 56.8539L59.9522 51.4905ZM34.2584 61.4997H44.0465V66.6247H34.2584V61.4997Z" fill="#1129A6"/>
</g>
</svg>
