<svg width="617" height="572" viewBox="0 0 617 572" fill="none" xmlns="http://www.w3.org/2000/svg">
<g clip-path="url(#clip0_1095_920)">
<path d="M57.2979 378.181L68.6917 383.244L95.3293 345.198L78.5118 337.727L57.2979 378.181Z" fill="#FFB6B6"/>
<path d="M51.1572 388.944L86.1963 404.513L86.4102 404.105C88.156 400.775 88.3936 396.944 87.0707 393.453C85.7478 389.963 82.9728 387.099 79.356 385.492L79.3551 385.491L75.299 378.178L61.0132 377.341L57.9545 375.982L51.1572 388.944Z" fill="#40F4D2"/>
<path d="M142.113 392.362L154.764 392.361L160.783 347.439L142.11 347.44L142.113 392.362Z" fill="#FFB6B6"/>
<path d="M141.667 404.513L180.575 404.511V404.059C180.575 400.362 178.979 396.816 176.139 394.202C173.299 391.588 169.447 390.119 165.431 390.119H165.43L158.323 385.156L145.063 390.12L141.667 390.12L141.667 404.513Z" fill="#40F4D2"/>
<path d="M154.651 184.024L169.15 276.054L170.382 296.74L162.778 361.29L165.865 367.545L157.241 372.44H139.694L138.763 304.253L125.604 247.146L123.569 311.873L120.752 316.875C110.258 338.789 96.123 345.964 86.1298 362.345L68.5818 353.595L68.9497 347.07C65.4244 345.427 74.2426 340.626 75.0899 337.073L76.6246 330.713L86.861 311.195L87.2516 304.322L84.4501 257.573L85.7683 194.619L108.786 178.418L154.651 184.024Z" fill="#40F4D2"/>
<path d="M132.602 53.5537C145.193 53.5537 155.4 44.1585 155.4 32.5688C155.4 20.9792 145.193 11.584 132.602 11.584C120.011 11.584 109.804 20.9792 109.804 32.5688C109.804 44.1585 120.011 53.5537 132.602 53.5537Z" fill="#FFB6B6"/>
<path d="M135.738 201.008C105.683 201.009 83.1369 190.589 82.8284 190.444L82.5614 190.317L82.6435 190.052C83.4503 187.451 84.2147 183.087 82.8317 182.451C82.6828 182.399 82.5508 182.313 82.4477 182.201C82.3447 182.089 82.274 181.955 82.2422 181.811C82.163 181.288 82.7317 180.81 83.5189 180.148C85.047 178.864 87.1398 177.105 85.9123 174.281C83.7485 169.302 89.8328 143.787 90.2262 142.152L87.6275 101.482C87.154 93.7225 89.5974 86.0494 94.547 79.7528C99.4965 73.4563 106.65 68.9204 114.806 66.9077L114.864 66.8935L114.923 66.8971C115.768 66.9409 116.663 64.2994 117.342 62.3664C118.344 59.5094 119.006 57.7539 120.135 57.8285C128.877 58.3474 134.703 58.6868 138.585 58.9086C145.945 59.3296 147.235 67.5698 147.393 68.8853C155.315 73.3289 161.511 79.962 165.096 87.8383C168.68 95.7147 169.471 104.432 167.355 112.746L163.687 127.266L160.445 134.242L161.513 148.006C166.541 151.854 165.1 159.727 164.814 161.058C169.605 165.62 166.663 170.989 165.949 172.126C167.176 173.506 168.01 175.144 168.378 176.894C168.746 178.644 168.635 180.45 168.056 182.151L172.469 195.352L172.136 195.458C160.429 199.179 148.123 201.055 135.738 201.008Z" fill="#40F4D2"/>
<path d="M276.98 63.264C276.185 62.3194 275.176 61.5465 274.022 60.9998C272.869 60.4531 271.599 60.1459 270.302 60.0998C269.006 60.0537 267.714 60.2699 266.518 60.7331C265.322 61.1962 264.251 61.8952 263.38 62.7806L191.292 63.1417L170.811 72.2495L168.154 82.6882L201.249 81.4146L264.419 74.7732C266.132 76.0212 268.283 76.6475 270.464 76.5333C272.645 76.4192 274.705 75.5725 276.253 74.1539C277.801 72.7352 278.73 70.8431 278.864 68.836C278.998 66.8289 278.327 64.8464 276.979 63.264H276.98Z" fill="#FFB6B6"/>
<path d="M195.978 85.0875L167.918 97.3059L141.903 87.282L141.877 87.0883C141.387 83.5465 142.062 79.9507 143.816 76.7661C145.57 73.5814 148.322 70.9543 151.715 69.2245C157.144 66.4391 163.062 64.5531 169.2 63.6524C186.408 61.2962 189.898 60.3913 189.931 60.3822L190.31 60.2812L195.978 85.0875Z" fill="#40F4D2"/>
<path d="M113.269 45.7588C112.988 45.7599 112.708 45.7184 112.442 45.6359C111.394 45.2134 110.518 44.4969 109.94 43.589C105.899 38.2396 103.948 31.1075 104.141 22.3905C104.223 18.7027 104.676 13.9876 107.482 10.2291C109.842 7.06878 114.615 4.56073 119.063 5.81968C119.012 5.00095 119.21 4.18536 119.633 3.46391C120.057 2.74246 120.69 2.14353 121.462 1.73392C123.166 0.927921 125.048 0.490379 126.964 0.454587C131.481 0.0648392 136.151 -0.338051 140.726 0.459833C145.855 1.35533 150.049 3.78879 152.232 7.13613L152.277 7.24129L152.721 9.22486C152.78 9.49151 152.902 9.7431 153.077 9.96231C153.253 10.1815 153.478 10.3631 153.737 10.4946C153.996 10.6261 154.282 10.7044 154.577 10.724C154.872 10.7436 155.169 10.7042 155.445 10.6084C155.747 10.5037 156.074 10.4733 156.393 10.5203C156.712 10.5672 157.012 10.6899 157.263 10.8762C157.515 11.0624 157.709 11.3059 157.827 11.5825C157.946 11.859 157.983 12.1592 157.937 12.4533L157.813 13.2423L159.103 13.0201C159.426 12.9647 159.759 12.989 160.068 13.0906C160.378 13.1922 160.652 13.3675 160.864 13.5985C161.075 13.8295 161.217 14.1081 161.274 14.4058C161.33 14.7035 161.3 15.0097 161.186 15.2932L160.822 16.2005C161.089 16.2021 161.353 16.254 161.597 16.353C161.841 16.452 162.061 16.5961 162.243 16.7763C162.504 17.0346 162.668 17.3629 162.712 17.7134C162.756 18.0638 162.677 18.4179 162.486 18.724C161.044 20.9936 158.999 22.8879 156.542 24.2288C155.2 24.9722 153.731 25.5037 152.198 25.8013C142.25 27.7775 131.992 28.0614 121.932 26.6389C122.528 28.4653 122.757 30.3761 122.609 32.2781C122.521 33.3567 122.115 34.3928 121.434 35.2741C120.753 36.1554 119.823 36.8483 118.744 37.2778C118.283 37.4159 117.811 37.5207 117.332 37.5913C116.874 37.6569 116.423 37.7578 115.983 37.8929C115.332 38.1132 114.755 38.4877 114.311 38.9786C113.867 39.4696 113.571 40.0596 113.454 40.6893C113.337 41.3189 113.402 41.9659 113.644 42.5649C113.885 43.1638 114.293 43.6937 114.828 44.101L115.827 43.1427L115.502 44.3609C115.434 44.5981 115.313 44.8195 115.146 45.0107C114.979 45.2018 114.771 45.3586 114.534 45.4707C114.145 45.6616 113.71 45.7607 113.269 45.7588Z" fill="#40F4D2"/>
<path d="M265.937 301.516C337.844 301.516 396.136 248.679 396.136 183.501C396.136 118.323 337.844 65.4863 265.937 65.4863C194.03 65.4863 135.738 118.323 135.738 183.501C135.738 248.679 194.03 301.516 265.937 301.516Z" fill="#E6E6E6"/>
<path d="M373.816 183.5C373.834 197.652 370.458 211.632 363.93 224.445C363.73 224.84 363.522 225.235 363.315 225.63C353.332 244.454 337.112 259.873 316.994 269.663C316.572 269.867 316.15 270.071 315.728 270.269C300.321 277.538 283.25 281.315 265.937 281.285C259.932 281.287 253.936 280.838 248.01 279.942C247.538 279.87 247.066 279.797 246.6 279.718C224.426 276.087 204.036 266.174 188.276 251.364C187.947 251.054 187.618 250.738 187.281 250.422C172.187 235.918 162.362 217.454 159.167 197.585C159.102 197.151 159.031 196.716 158.974 196.281C156.058 176.08 160.146 155.547 170.656 137.61C170.878 137.222 171.114 136.833 171.343 136.451C179.437 123.146 190.769 111.746 204.45 103.145C204.844 102.895 205.237 102.651 205.631 102.408C218.85 94.3166 233.841 89.0001 249.541 86.8345C250.013 86.7752 250.485 86.7094 250.957 86.6501C255.922 86.0249 260.927 85.7125 265.937 85.7151C281.716 85.6914 297.311 88.8257 311.643 94.901C312.079 95.0853 312.508 95.2697 312.938 95.4607C326.343 101.348 338.283 109.718 348.013 120.049C348.327 120.378 348.642 120.714 348.943 121.049C360.703 133.825 368.655 149.193 372.021 165.649V165.655C372.114 166.083 372.193 166.511 372.271 166.946C373.302 172.413 373.819 177.951 373.816 183.5Z" fill="white"/>
<path d="M276.59 176.068C278.075 177.762 279.038 179.792 279.38 181.945L331.358 172.921C329.306 162.75 324.412 153.246 317.158 145.344L276.59 176.068Z" fill="#40F4D2"/>
<path d="M332.99 173.761C332.926 173.327 332.84 172.899 332.754 172.471V172.464C330.659 162.074 325.665 152.364 318.261 144.287C317.953 143.952 317.638 143.616 317.323 143.293C311.355 137.034 304.094 131.93 295.962 128.28H295.955C295.526 128.089 295.104 127.898 294.667 127.713C282.74 122.672 269.495 120.873 256.495 122.531C256.023 122.584 255.55 122.65 255.078 122.722C245.658 124.094 236.657 127.276 228.659 132.059C228.259 132.296 227.858 132.54 227.465 132.79C218.683 138.27 211.424 145.574 206.275 154.112C206.046 154.494 205.817 154.882 205.588 155.278C199.156 166.546 196.739 179.391 198.678 191.995C198.735 192.436 198.806 192.87 198.892 193.299C201.058 205.44 207.166 216.693 216.412 225.577C216.734 225.894 217.063 226.21 217.406 226.519C227.139 235.55 239.627 241.64 253.211 243.982C253.683 244.068 254.155 244.14 254.627 244.213C269.103 246.424 283.967 244.325 297.057 238.22C297.479 238.023 297.894 237.819 298.316 237.608H298.323C310.698 231.514 320.71 222.032 326.974 210.472C327.188 210.077 327.396 209.682 327.596 209.287C333.249 198.217 335.129 185.833 332.99 173.761L332.99 173.761ZM326.294 208.74C326.094 209.142 325.887 209.537 325.672 209.925C319.533 221.221 309.741 230.488 297.643 236.449C297.221 236.653 296.799 236.857 296.377 237.055C283.574 243.03 269.03 245.081 254.871 242.909C254.399 242.843 253.919 242.77 253.454 242.685C240.18 240.393 227.976 234.443 218.458 225.624C218.115 225.314 217.785 224.998 217.456 224.682C208.422 215.997 202.445 205.003 200.309 193.14C200.23 192.712 200.159 192.278 200.094 191.843C198.198 179.512 200.561 166.944 206.847 155.916C207.062 155.528 207.291 155.139 207.527 154.751C212.576 146.385 219.692 139.229 228.302 133.864C228.695 133.613 229.088 133.37 229.489 133.139C237.299 128.476 246.085 125.371 255.279 124.026C255.744 123.953 256.216 123.888 256.695 123.835C269.419 122.213 282.381 123.974 294.052 128.912C294.488 129.09 294.918 129.281 295.34 129.471C303.287 133.035 310.386 138.017 316.222 144.129C316.536 144.459 316.851 144.794 317.152 145.13C324.406 153.032 329.3 162.536 331.352 172.708C331.438 173.136 331.517 173.564 331.588 174.005C333.666 185.81 331.821 197.917 326.294 208.74V208.74Z" fill="#CCCCCC"/>
<path d="M260.966 173.676L259.8 174.44L228.302 133.864L227.465 132.791L204.451 103.146C204.845 102.896 205.238 102.652 205.632 102.408L228.66 132.06L229.49 133.14L260.966 173.676Z" fill="#CCCCCC"/>
<path d="M255.336 178.924L254.642 180.082L206.848 155.916L205.589 155.277L170.657 137.61C170.879 137.222 171.115 136.833 171.344 136.451L206.275 154.112L207.527 154.75L255.336 178.924Z" fill="#CCCCCC"/>
<path d="M254.728 187.267L200.309 193.141L198.892 193.299L159.167 197.585C159.103 197.151 159.031 196.716 158.974 196.281L198.678 191.995L200.094 191.843L254.563 185.963L254.728 187.267Z" fill="#CCCCCC"/>
<path d="M258.24 191.693L218.458 225.624L217.406 226.52L188.276 251.365C187.947 251.055 187.618 250.739 187.281 250.423L216.412 225.578L217.456 224.683L257.267 190.725L258.24 191.693Z" fill="#CCCCCC"/>
<path d="M312.939 95.4601L295.963 128.279H295.956L295.341 129.471L272.134 174.34L270.846 173.774L294.053 128.911L294.668 127.713L311.644 94.9004C312.081 95.0847 312.51 95.2691 312.939 95.4601Z" fill="#CCCCCC"/>
<path d="M348.944 121.05L318.262 144.288L317.153 145.131L275.21 176.896L274.302 175.882L316.223 144.13L317.324 143.293L348.014 120.049C348.329 120.378 348.644 120.714 348.944 121.05Z" fill="#CCCCCC"/>
<path d="M372.272 166.947L332.991 173.762L331.588 174.006L277.835 183.337L277.57 182.046L331.352 172.709L332.754 172.472V172.465L372.022 165.656C372.115 166.084 372.193 166.512 372.272 166.947Z" fill="#CCCCCC"/>
<path d="M363.931 224.444C363.731 224.839 363.523 225.234 363.316 225.63L326.975 210.471L325.673 209.925L276.59 189.452L277.184 188.254L326.295 208.739L327.597 209.286L363.931 224.444Z" fill="#CCCCCC"/>
<path d="M316.996 269.662C316.574 269.867 316.152 270.071 315.73 270.268L297.058 238.22L296.379 237.054L270.861 193.252L272.12 192.633L297.645 236.448L298.317 237.607H298.324L316.996 269.662Z" fill="#CCCCCC"/>
<path d="M263.863 194.312L254.87 242.908L254.627 244.212L248.01 279.941C247.538 279.869 247.066 279.796 246.601 279.717L253.211 243.981L253.454 242.684L262.446 194.088L263.863 194.312Z" fill="#CCCCCC"/>
<path d="M264.272 172.925L262.856 173.109L255.28 124.026L255.079 122.722L249.542 86.8347C250.015 86.7754 250.487 86.7096 250.959 86.6503L256.496 122.531L256.696 123.835L264.272 172.925Z" fill="#CCCCCC"/>
<path d="M265.939 195.82C273.446 195.82 279.531 190.304 279.531 183.5C279.531 176.696 273.446 171.18 265.939 171.18C258.432 171.18 252.347 176.696 252.347 183.5C252.347 190.304 258.432 195.82 265.939 195.82Z" fill="#40F4D2"/>
<path d="M545.545 527.915L535.371 535.756L497.67 503.366L512.686 491.793L545.545 527.915Z" fill="#A0616A"/>
<path d="M554.79 537.407L523.505 561.521L523.173 561.156C520.469 558.184 519.159 554.344 519.53 550.482C519.901 546.62 521.924 543.052 525.154 540.562L525.154 540.562L527.238 532.166L541.531 527.939L544.262 525.834L554.79 537.407Z" fill="#40F4D2"/>
<path d="M454.645 557.816L441.377 557.815L435.063 510.703L454.648 510.704L454.645 557.816Z" fill="#A0616A"/>
<path d="M455.112 570.556L414.307 570.555V570.08C414.307 566.203 415.981 562.484 418.959 559.743C421.938 557.001 425.977 555.461 430.19 555.461H430.191L437.644 550.256L451.551 555.462L455.113 555.462L455.112 570.556Z" fill="#40F4D2"/>
<path d="M487.834 332.366C491.039 336.054 489.436 348.593 489.436 348.593L490.222 426.688C503.845 437.015 514.278 479.89 514.278 479.89L527.286 501.919C525.684 506.345 515.286 523.651 512.081 522.914C510.593 522.571 492.08 506.856 479.768 483.549C465.546 456.625 457.382 421.618 457.382 421.618C457.382 421.618 458.985 521.935 458.985 526.361C458.985 530.786 437.348 528.573 432.54 528.573C427.732 528.573 402.983 347.856 402.983 347.856V337.529L406.99 332.366C406.99 332.366 484.628 328.678 487.834 332.366Z" fill="#40F4D2"/>
<path d="M315.572 165.624L305.854 169.799L316.684 167.711C316.684 167.711 324.642 168.01 324.642 165.028L337.599 158.468C337.599 158.468 348.612 163.835 351.852 160.854C355.091 157.872 349.26 151.909 349.26 151.909C349.26 151.909 353.163 149.927 352.831 149.129C352.499 148.331 347.317 149.523 347.317 149.523C347.317 149.523 335.007 142.964 335.655 154.294L322.698 162.201C322.698 162.201 316.22 162.046 315.572 165.624Z" fill="#40F4D2"/>
<path d="M492.286 357.903C475.28 365.669 455.044 368.018 435.983 365.956C419.55 364.175 416.133 347.276 400.881 341.28C405.701 328.533 405.759 311.612 404.944 306.863C403.551 298.754 403.292 242.239 408.396 236.353C415.091 228.632 425.31 224.507 424.845 214.638L426.277 215.991C424.468 211.61 427.971 206.595 432.583 204.613C437.196 202.631 442.524 202.882 447.606 203.174C451.885 203.421 456.164 203.667 460.443 203.914C459.883 205.521 459.748 207.229 460.048 208.894C460.348 210.56 461.076 212.136 462.17 213.491C469.755 211.564 477.756 216.685 481.144 223.214C484.532 229.749 484.45 237.289 484.297 244.527C484.122 252.903 490.866 311.721 482.707 315.443C486.915 316.419 492.862 337.075 489.272 334.837C490.933 335.908 490.532 345.911 492.286 357.903Z" fill="#40F4D2"/>
<path d="M326.98 155.891C328.814 155.395 330.743 155.275 332.633 155.539C334.522 155.804 336.326 156.446 337.917 157.422C339.507 158.398 340.846 159.682 341.839 161.186C342.832 162.689 343.454 164.374 343.663 166.123L415.82 224.521L402.79 232.489L331.172 179.609C327.957 179.737 324.803 178.775 322.308 176.905C319.812 175.035 318.148 172.387 317.631 169.464C317.114 166.54 317.781 163.544 319.504 161.042C321.227 158.541 323.887 156.708 326.98 155.891Z" fill="#A0616A"/>
<path d="M404.685 205.682C403.105 205.766 365.814 180.719 364.86 181.881L362.354 194.391L355.461 202.782L370.362 217.321L374.619 220.536L377.356 223.2C376.399 224.378 382.754 230.695 383.099 232.137C383.265 232.842 383.594 233.507 384.064 234.085C384.534 234.664 385.133 235.142 385.821 235.489L410.069 247.599C413.302 249.808 417.354 250.747 421.338 250.211C425.321 249.674 428.911 247.705 431.32 244.735C433.729 241.766 434.76 238.038 434.188 234.37C433.616 230.701 431.486 227.392 428.266 225.166L424.69 221.837L419.211 216.726L408.959 207.169C408.406 206.651 407.738 206.25 407 205.993C406.262 205.737 405.472 205.63 404.685 205.682Z" fill="#40F4D2"/>
<path d="M444.912 196.559C459.439 196.559 471.215 185.72 471.215 172.348C471.215 158.977 459.439 148.137 444.912 148.137C430.385 148.137 418.609 158.977 418.609 172.348C418.609 185.72 430.385 196.559 444.912 196.559Z" fill="#A0616A"/>
<path d="M476.29 164.681C474.827 159.338 469.371 154.677 463.414 155.218C464.15 151.102 461.174 146.957 457.162 145.017C453.149 143.077 448.357 142.994 443.885 143.67C441.288 144.103 438.716 144.656 436.179 145.327C434.027 145.86 423.935 142.68 421.797 143.261C419.969 143.757 415.569 149.786 414.181 150.989C412.793 152.192 412.058 154.216 412.985 155.749C413.901 157.263 415.995 157.756 417.871 157.897C419.746 158.039 421.762 158.014 423.319 158.987C425.32 160.238 425.887 162.732 425.805 164.958C425.724 167.183 425.17 169.427 425.621 171.614C426.073 173.802 427.996 175.987 430.409 175.836C432.216 174.083 435.516 174.196 437.589 175.679C438.58 176.477 439.372 177.462 439.91 178.567C440.449 179.672 440.721 180.872 440.709 182.083C440.667 184.503 440.259 186.905 439.496 189.221C439.061 190.82 438.734 192.758 440.021 193.905C440.779 194.461 441.69 194.811 442.653 194.916C446.451 195.659 460.702 194.651 464.5 195.394L464.206 194.86C466.957 189.967 470.608 185.536 473.312 180.62C476.015 175.705 477.752 170.024 476.29 164.681Z" fill="#40F4D2"/>
<path d="M516.665 364.642C514.806 364.232 513.067 363.452 511.571 362.357C510.076 361.262 508.859 359.878 508.007 358.303C507.155 356.728 506.688 355.001 506.64 353.242C506.591 351.483 506.963 349.736 507.727 348.124L476.717 264.416L492.325 263.475L525.852 342.149C528.71 343.511 530.926 345.79 532.079 348.555C533.233 351.32 533.245 354.379 532.112 357.152C530.98 359.924 528.782 362.218 525.935 363.598C523.088 364.979 519.789 365.35 516.665 364.642Z" fill="#A0616A"/>
<path d="M469.534 275.36C470.95 276.011 489.752 314.818 491.208 314.248L500.146 304.545L510.661 300.425L505.598 280.988L503.643 276.25L502.71 272.686C504.177 272.102 502.08 263.711 502.561 262.303C502.798 261.615 502.872 260.888 502.777 260.171C502.682 259.454 502.421 258.764 502.012 258.148L487.528 236.537C485.919 233.139 482.912 230.468 479.167 229.109C475.421 227.749 471.242 227.812 467.547 229.285C463.852 230.757 460.942 233.518 459.455 236.962C457.968 240.406 458.026 244.252 459.616 247.657L460.918 252.184L462.906 259.126L466.631 272.112C466.831 272.815 467.194 273.469 467.695 274.03C468.196 274.59 468.824 275.044 469.534 275.36Z" fill="#40F4D2"/>
<path d="M589.527 556.704L582.2 545.865L580.736 552.059C580.479 553.143 580.223 554.246 579.985 555.339C577.904 553.703 575.69 552.19 573.523 550.738C566.87 546.294 560.221 541.844 553.575 537.389L555.656 548.498C556.939 555.339 558.279 562.32 561.453 568.574C561.805 569.283 562.185 569.983 562.594 570.665H593.518C593.767 570.031 593.939 569.374 594.032 568.706C594.039 568.662 594.043 568.618 594.041 568.574C594.526 564.332 591.979 560.334 589.527 556.704Z" fill="#F0F0F0"/>
<path d="M615.701 571.732L353.64 572C353.34 572 353.052 571.891 352.84 571.695C352.628 571.5 352.509 571.235 352.509 570.959C352.509 570.683 352.628 570.418 352.84 570.222C353.052 570.027 353.34 569.917 353.64 569.917L615.701 569.648C615.85 569.648 615.998 569.675 616.135 569.727C616.273 569.779 616.398 569.856 616.504 569.952C616.609 570.049 616.693 570.164 616.75 570.291C616.807 570.417 616.836 570.553 616.836 570.69C616.836 570.827 616.807 570.963 616.75 571.089C616.693 571.216 616.609 571.331 616.504 571.428C616.398 571.524 616.273 571.601 616.135 571.653C615.998 571.705 615.85 571.732 615.701 571.732Z" fill="#CACACA"/>
<path d="M237.018 390.085L229.691 379.246L228.227 385.44C227.971 386.524 227.714 387.626 227.477 388.72C225.395 387.084 223.181 385.571 221.014 384.119C214.362 379.675 207.712 375.225 201.066 370.77L203.147 381.879C204.43 388.72 205.771 395.701 208.945 401.955C209.296 402.664 209.676 403.364 210.085 404.046H241.01C241.259 403.412 241.431 402.755 241.523 402.087C241.531 402.043 241.534 401.999 241.532 401.955C242.017 397.713 239.47 393.715 237.018 390.085Z" fill="#F0F0F0"/>
<path d="M141.989 204C140.755 203.631 139.624 203.017 138.675 202.202C137.727 201.387 136.984 200.39 136.499 199.283C136.014 198.175 135.799 196.983 135.869 195.79C135.939 194.597 136.292 193.433 136.904 192.38L112.937 129.799L115.337 108.978L125.115 103.152L134.985 132.257L149.518 189.232C151.373 190.294 152.739 191.946 153.359 193.875C153.978 195.803 153.808 197.874 152.88 199.694C151.952 201.514 150.331 202.958 148.323 203.752C146.316 204.545 144.062 204.633 141.989 204L141.989 204Z" fill="#FFB6B6"/>
<path d="M100.022 87.0798L122.689 79.0039L135.85 119.384L105.472 128.245L100.022 87.0798Z" fill="#40F4D2"/>
</g>
<defs>
<clipPath id="clip0_1095_920">
<rect width="616.833" height="572" fill="white"/>
</clipPath>
</defs>
</svg>
