<svg width="494" height="434" viewBox="0 0 494 434" fill="none" xmlns="http://www.w3.org/2000/svg">
<g clip-path="url(#clip0_1095_970)">
<path d="M136.94 254.793H39.7231V351.796H136.94V254.793Z" fill="#40F4D2"/>
<path d="M176.663 385.523H0V221.065H176.663V385.523ZM1.04534 384.408H175.618V222.18H1.04534V384.408Z" fill="#40F4D2"/>
<path d="M418.88 158.745C404.162 158.745 389.775 154.09 377.537 145.368C365.299 136.647 355.761 124.25 350.129 109.747C344.497 95.2436 343.023 79.2844 345.894 63.8876C348.766 48.4909 355.853 34.3481 366.26 23.2476C376.668 12.1472 389.927 4.58769 404.362 1.52509C418.798 -1.53751 433.76 0.0343349 447.358 6.04185C460.956 12.0494 472.578 22.2227 480.755 35.2755C488.932 48.3282 493.296 63.6741 493.296 79.3725C493.274 100.416 485.426 120.591 471.476 135.471C457.525 150.351 438.61 158.721 418.88 158.745ZM418.88 1.17586C404.38 1.17586 390.206 5.76201 378.149 14.3544C366.093 22.9467 356.696 35.1594 351.148 49.4479C345.599 63.7365 344.147 79.4592 346.976 94.6279C349.804 109.797 356.787 123.73 367.04 134.666C377.293 145.602 390.356 153.049 404.578 156.067C418.799 159.084 433.54 157.535 446.936 151.617C460.332 145.698 471.782 135.676 479.838 122.816C487.894 109.957 492.194 94.8383 492.194 79.3725C492.172 58.6406 484.441 38.7646 470.696 24.1049C456.952 9.44528 438.317 1.19923 418.88 1.17589V1.17586Z" fill="#40F4D2"/>
<path d="M416.676 117.589C436.464 117.589 452.505 100.479 452.505 79.3725C452.505 58.2662 436.464 41.1561 416.676 41.1561C396.887 41.1561 380.846 58.2662 380.846 79.3725C380.846 100.479 396.887 117.589 416.676 117.589Z" fill="#40F4D2"/>
<path d="M151.571 68.0301L130.288 81.1367L142.576 103.838L163.859 90.7314L151.571 68.0301Z" fill="#40F4D2"/>
<path d="M446.741 338.294L425.458 351.4L437.746 374.102L459.029 360.995L446.741 338.294Z" fill="#E5E5E5"/>
<path d="M97.2172 293.817H79.4463V312.771H97.2172V293.817Z" fill="#40F4D2"/>
<path d="M416.676 88.7791C421.547 88.7791 425.496 84.5674 425.496 79.372C425.496 74.1766 421.547 69.9648 416.676 69.9648C411.805 69.9648 407.856 74.1766 407.856 79.372C407.856 84.5674 411.805 88.7791 416.676 88.7791Z" fill="#40F4D2"/>
<path d="M386.523 207.098L340.867 235.213L367.226 283.909L412.882 255.794L386.523 207.098Z" fill="#40F4D2"/>
<path d="M403.668 432.562H120.629V434H403.668V432.562Z" fill="#CBCBCB"/>
<path d="M228.042 238.669C227.222 237.545 226.643 236.243 226.346 234.854C226.049 233.466 226.04 232.024 226.322 230.632C226.603 229.24 227.168 227.93 227.975 226.796C228.782 225.661 229.813 224.729 230.994 224.066L229.087 201.895L241.436 197.373L243.717 228.722C244.631 230.913 244.759 233.385 244.078 235.671C243.397 237.956 241.954 239.895 240.022 241.121C238.09 242.348 235.803 242.775 233.595 242.323C231.387 241.871 229.411 240.571 228.042 238.669Z" fill="#FFB8B8"/>
<path d="M241.298 111.426C241.298 111.426 249.772 92.4569 257.302 99.1294C264.832 105.802 246.978 161.889 246.978 161.889L244.263 216.336L229.952 214.81L225.906 161.764L241.298 111.426Z" fill="#CCCCCC"/>
<path d="M127.63 392.058L138.253 401.231L176.478 361.89L160.799 348.354L127.63 392.058Z" fill="#FFB8B8"/>
<path d="M127.729 386.02L148.65 404.083L148.651 404.084C152.187 407.137 154.441 411.563 154.917 416.389C155.393 421.214 154.053 426.044 151.191 429.816L150.84 430.278L116.586 400.703L127.729 386.02Z" fill="#40F4D2"/>
<path d="M275.27 417.519L288.938 417.519L295.44 361.289L275.268 361.29L275.27 417.519Z" fill="#FFB8B8"/>
<path d="M271.784 412.761L298.701 412.76H298.702C303.251 412.76 307.614 414.688 310.831 418.119C314.048 421.55 315.855 426.203 315.855 431.055V431.65L271.785 431.652L271.784 412.761Z" fill="#40F4D2"/>
<path d="M299.253 153.91C299.253 153.91 324.895 187.204 319.32 220.499C313.746 253.793 309.287 278.764 309.287 278.764L300.368 353.677C300.368 353.677 303.713 374.079 299.253 379.336C299.253 379.336 305.942 391.728 293.679 396.484C281.416 401.24 274.799 394.841 274.799 394.841C274.799 394.841 265.808 381.026 271.383 377.459L273.731 230.444L184.426 354.866C184.426 354.866 182.784 370.001 171.342 370.162L157.67 381.026L142.062 371.513L149.866 360.811C149.866 360.811 145.406 348.921 155.44 346.542L213.411 265.684L227.904 224.066C227.904 224.066 235.708 191.961 256.89 178.881V164.963L299.253 153.91Z" fill="#40F4D2"/>
<path d="M255.217 96.2385C258.592 91.9836 263.317 89.2015 268.492 88.4223C273.666 87.643 278.928 88.921 283.276 92.0128L284.202 92.6713C294.098 104.624 300.749 119.23 303.439 134.915L307.614 159.26L255.217 171.367L242.933 126.181C241.374 120.446 241.749 114.309 243.994 108.838C246.238 103.367 250.209 98.9091 255.217 96.2386V96.2385Z" fill="#CCCCCC"/>
<path d="M341.303 243.846C339.85 243.339 338.52 242.499 337.404 241.385C336.289 240.271 335.416 238.909 334.848 237.396C334.279 235.883 334.029 234.255 334.114 232.628C334.199 231 334.617 229.412 335.34 227.976L320.225 208.245L329.226 195.523L350.204 223.707C352.386 225.162 353.992 227.419 354.717 230.053C355.443 232.686 355.237 235.511 354.14 237.994C353.043 240.476 351.13 242.443 348.764 243.521C346.398 244.6 343.744 244.716 341.303 243.846Z" fill="#FFB8B8"/>
<path d="M277.514 114.076C277.514 114.076 274.169 90.2938 285.318 91.4828C296.466 92.6719 313.188 158.072 313.188 158.072L343.289 211.581L328.796 219.904L293.121 172.341L277.514 114.076Z" fill="#CCCCCC"/>
<path d="M297.929 79.3075H244.841C243.749 79.3062 242.702 78.8429 241.93 78.0193C241.158 77.1957 240.723 76.079 240.722 74.9142V50.5075C240.722 41.8336 243.953 33.515 249.703 27.3816C255.453 21.2482 263.253 17.8025 271.385 17.8025C279.517 17.8025 287.316 21.2482 293.067 27.3816C298.817 33.515 302.047 41.8336 302.047 50.5075V74.9143C302.046 76.079 301.612 77.1957 300.84 78.0193C300.068 78.8429 299.021 79.3062 297.929 79.3075Z" fill="#40F4D2"/>
<path d="M297.411 66.2618C303.366 54.6418 299.362 40.0727 288.468 33.7207C277.574 27.3686 263.914 31.6391 257.959 43.259C252.004 54.879 256.007 69.4482 266.902 75.8002C277.796 82.1522 291.455 77.8817 297.411 66.2618Z" fill="#FFB8B8"/>
<path d="M309.301 52.9491H281.009L280.719 47.9782L279.269 52.9491H274.912L274.337 43.0968L271.462 52.9491H263.033V52.461C263.033 38.1954 272.516 26.5898 284.173 26.5898H288.161C299.818 26.5898 309.301 38.1954 309.301 52.461L309.301 52.9491Z" fill="#40F4D2"/>
<path d="M282.182 83.863C281.836 83.8627 281.491 83.8344 281.149 83.7781L247.475 78.2459V40.8354C247.475 38.9431 247.824 37.0693 248.503 35.3211C249.182 33.5728 250.177 31.9843 251.432 30.6462C252.686 29.3082 254.175 28.2468 255.814 27.5226C257.453 26.7985 259.21 26.4258 260.984 26.4258H284.544L283.626 27.4221C270.857 41.288 280.477 63.7717 287.348 75.9397C287.852 76.8143 288.08 77.8385 287.998 78.8616C287.915 79.8846 287.527 80.8525 286.891 81.6228C286.306 82.3393 285.582 82.911 284.768 83.2979C283.955 83.6849 283.072 83.8777 282.182 83.863Z" fill="#40F4D2"/>
</g>
<defs>
<clipPath id="clip0_1095_970">
<rect width="493.297" height="434" fill="white"/>
</clipPath>
</defs>
</svg>
